<svg xmlns="http://www.w3.org/2000/svg" viewBox="0 0 90 90">
  <g fill="currentColor">
    <path d="M45 68c-12.682 0-23-10.317-23-23s10.318-23 23-23 23 10.318 23 23-10.317 23-23 23z"/>
    <path d="M38.652 17.61c-.292 0-.573-.127-.765-.356-.239-.284-.301-.677-.161-1.021l6.348-15.61C44.227.247 44.593 0 45 0s.773.247.926.623l6.349 15.61c.14.344.077.737-.162 1.021-.238.284-.616.414-.978.333-4.045-.881-8.228-.881-12.271 0-.07.016-.141.023-.212.023z"/>
    <path d="M45 90c-.407 0-.773-.246-.926-.623l-6.348-15.61c-.14-.344-.078-.737.161-1.021.239-.284.615-.412.978-.333 4.043.882 8.226.882 12.271 0 .363-.08.74.05.978.333.239.283.302.677.162 1.021l-6.349 15.61C45.773 89.754 45.407 90 45 90z"/>
    <path d="M16.61 52.349c-.127 0-.255-.024-.377-.073l-15.61-6.349C.247 45.773 0 45.407 0 45s.247-.773.624-.926l15.61-6.348c.343-.14.737-.078 1.021.161.284.239.412.616.333.978-.441 2.021-.665 4.086-.665 6.135 0 2.049.224 4.113.665 6.136.079.362-.049.739-.333.978-.221.185-.45.265-.682.265z"/>
    <path d="M73.39 52.349c-.231 0-.461-.08-.644-.235-.284-.238-.412-.615-.333-.978.44-2.022.664-4.087.664-6.136 0-2.049-.224-4.114-.664-6.135-.079-.362.049-.739.333-.978.283-.239.676-.301 1.021-.161l15.61 6.348C89.754 44.227 90 44.593 90 45s-.246.773-.623.926l-15.61 6.349c-.122.049-.25.074-.377.074z"/>
    <path d="M20.437 30.415c-.028 0-.057-.001-.085-.004-.37-.032-.692-.266-.836-.607l-6.549-15.527c-.158-.375-.073-.808.214-1.096.288-.288.722-.371 1.096-.214l15.527 6.549c.342.144.576.466.607.835.032.37-.144.727-.456.927-1.743 1.119-3.36 2.42-4.809 3.868-1.448 1.449-2.75 3.066-3.868 4.809-.18.279-.498.451-.836.451z"/>
    <path d="M76.112 77.112c-.131 0-.263-.025-.389-.078l-15.526-6.549c-.342-.145-.576-.467-.607-.836-.032-.37.144-.727.456-.928 1.745-1.121 3.363-2.423 4.808-3.868 1.445-1.444 2.747-3.063 3.868-4.808.201-.312.553-.489.928-.456.369.031.691.266.836.607l6.549 15.526c.157.375.073.809-.215 1.096-.191.191-.447.292-.707.292z"/>
    <path d="M69.563 30.414c-.339 0-.656-.171-.842-.459-1.121-1.746-2.423-3.363-3.868-4.809-1.447-1.447-3.065-2.749-4.808-3.868-.313-.2-.488-.557-.456-.927.031-.37.266-.691.607-.835l15.526-6.549c.373-.158.808-.074 1.096.214.288.288.372.721.215 1.096l-6.549 15.527c-.145.342-.467.576-.836.607-.028.003-.056.004-.085.004z"/>
    <path d="M13.887 77.112c-.26 0-.516-.102-.707-.293-.288-.288-.373-.721-.214-1.096l6.549-15.526c.144-.342.466-.576.835-.607.37-.043.727.144.927.456 1.119 1.742 2.421 3.36 3.868 4.808 1.446 1.446 3.063 2.747 4.809 3.868.312.201.488.558.456.928-.032.369-.266.691-.607.836l-15.527 6.549c-.126.053-.258.078-.389.078z"/>
  </g>
</svg>
